HIERARCHY
ROOT Hips
{
	OFFSET 0.000000 103.266502 0.000000
	CHANNELS 6 Xposition Yposition Zposition Xrotation Yrotation Zrotation 
	JOINT Spine
	{
		OFFSET -0.002400 12.777504 0.315300
		CHANNELS 3 Xrotation Yrotation Zrotation
		JOINT Spine1
		{
			OFFSET -0.002067 5.816869 0.032633
			CHANNELS 3 Xrotation Yrotation Zrotation
			JOINT Spine1_split
			{
				OFFSET -0.002067 5.816869 0.032633
				CHANNELS 3 Xrotation Yrotation Zrotation
				JOINT Spine2
				{
					OFFSET -0.002067 5.816869 0.032633
					CHANNELS 3 Xrotation Yrotation Zrotation
					JOINT Neck
					{
						OFFSET -0.003700 21.199493 -0.826900
						CHANNELS 3 Xrotation Yrotation Zrotation
						JOINT Head
						{
							OFFSET 0.000000 20.442200 4.834800
							CHANNELS 3 Xrotation Yrotation Zrotation
							JOINT HeadTop_End
							{
								OFFSET 0.000000 34.668396 4.968400
								CHANNELS 3 Xrotation Yrotation Zrotation
								End Site
								{
									OFFSET 0.000000 0.000000 0.000000
								}
							}
						}
					}
					JOINT LeftShoulder
					{
						OFFSET 3.288150 8.794197 -1.372250
						CHANNELS 3 Xrotation Yrotation Zrotation
						JOINT LeftShoulder_split
						{
							OFFSET 3.288150 8.794197 -1.372250
							CHANNELS 3 Xrotation Yrotation Zrotation
							JOINT LeftArm
							{
								OFFSET 11.953299 -2.279007 -0.146200
								CHANNELS 3 Xrotation Yrotation Zrotation
								JOINT LeftForeArm
								{
									OFFSET 18.448900 0.000000 0.000000
									CHANNELS 3 Xrotation Yrotation Zrotation
									JOINT LeftHand
									{
										OFFSET 29.527798 0.000000 0.000000
										CHANNELS 3 Xrotation Yrotation Zrotation
										JOINT LeftHandThumb1
										{
											OFFSET 10.739754 -2.369614 9.225399
											CHANNELS 3 Xrotation Yrotation Zrotation
											JOINT LeftHandThumb2
											{
												OFFSET 4.926170 -2.844131 2.844125
												CHANNELS 3 Xrotation Yrotation Zrotation
												JOINT LeftHandThumb3
												{
													OFFSET 4.614891 -2.664413 2.664409
													CHANNELS 3 Xrotation Yrotation Zrotation
													JOINT LeftHandThumb4
													{
														OFFSET 4.432465 -2.559082 2.559083
														CHANNELS 3 Xrotation Yrotation Zrotation
														End Site
														{
															OFFSET 0.000000 0.000000 0.000000
														}
													}
												}
											}
										}
										JOINT LeftHandIndex1
										{
											OFFSET 26.467674 0.187653 6.405298
											CHANNELS 3 Xrotation Yrotation Zrotation
											JOINT LeftHandIndex2
											{
												OFFSET 8.792900 0.000000 0.000000
												CHANNELS 3 Xrotation Yrotation Zrotation
												JOINT LeftHandIndex3
												{
													OFFSET 10.075203 0.000000 0.000000
													CHANNELS 3 Xrotation Yrotation Zrotation
													End Site
													{
														OFFSET 0.000000 0.000000 0.000000
													}
												}
											}
										}
										JOINT LeftHandMiddle1
										{
											OFFSET 25.764404 0.000000 0.000000
											CHANNELS 3 Xrotation Yrotation Zrotation
											JOINT LeftHandMiddle2
											{
												OFFSET 9.393974 0.000000 0.000000
												CHANNELS 3 Xrotation Yrotation Zrotation
												JOINT LeftHandMiddle3
												{
													OFFSET 10.771950 0.000000 0.000000
													CHANNELS 3 Xrotation Yrotation Zrotation
													End Site
													{
														OFFSET 0.000000 0.000000 0.000000
													}
												}
											}
										}
										JOINT LeftHandRing1
										{
											OFFSET 24.660927 0.144547 -6.225808
											CHANNELS 3 Xrotation Yrotation Zrotation
											JOINT LeftHandRing2
											{
												OFFSET 9.393799 0.000000 0.000000
												CHANNELS 3 Xrotation Yrotation Zrotation
												JOINT LeftHandRing3
												{
													OFFSET 9.928497 0.000000 0.000000
													CHANNELS 3 Xrotation Yrotation Zrotation
													End Site
													{
														OFFSET 0.000000 0.000000 0.000000
													}
												}
											}
										}
										JOINT LeftHandPinky1
										{
											OFFSET 23.655350 0.125290 -12.815412
											CHANNELS 3 Xrotation Yrotation Zrotation
											JOINT LeftHandPinky2
											{
												OFFSET 8.425102 0.000000 0.000000
												CHANNELS 3 Xrotation Yrotation Zrotation
												JOINT LeftHandPinky3
												{
													OFFSET 8.147003 0.000000 0.000000
													CHANNELS 3 Xrotation Yrotation Zrotation
													End Site
													{
														OFFSET 0.000000 0.000000 0.000000
													}
												}
											}
										}
									}
								}
							}
						}
					}
					JOINT RightShoulder
					{
						OFFSET -3.249400 8.794197 -1.372250
						CHANNELS 3 Xrotation Yrotation Zrotation
						JOINT RightShoulder_split
						{
							OFFSET -3.249400 8.794197 -1.372250
							CHANNELS 3 Xrotation Yrotation Zrotation
							JOINT RightArm
							{
								OFFSET -11.953299 -2.279007 -0.146200
								CHANNELS 3 Xrotation Yrotation Zrotation
								JOINT RightForeArm
								{
									OFFSET -18.448900 0.000000 0.000000
									CHANNELS 3 Xrotation Yrotation Zrotation
									JOINT RightHand
									{
										OFFSET -29.527802 0.000000 0.000000
										CHANNELS 3 Xrotation Yrotation Zrotation
										JOINT RightHandThumb1
										{
											OFFSET -10.739754 -2.369614 9.225399
											CHANNELS 3 Xrotation Yrotation Zrotation
											JOINT RightHandThumb2
											{
												OFFSET -4.926170 -2.844131 2.844125
												CHANNELS 3 Xrotation Yrotation Zrotation
												JOINT RightHandThumb3
												{
													OFFSET -4.614891 -2.664413 2.664409
													CHANNELS 3 Xrotation Yrotation Zrotation
													JOINT RightHandThumb4
													{
														OFFSET -4.432465 -2.559082 2.559083
														CHANNELS 3 Xrotation Yrotation Zrotation
														End Site
														{
															OFFSET 0.000000 0.000000 0.000000
														}
													}
												}
											}
										}
										JOINT RightHandIndex1
										{
											OFFSET -26.467674 0.187653 6.405298
											CHANNELS 3 Xrotation Yrotation Zrotation
											JOINT RightHandIndex2
											{
												OFFSET -8.792900 0.000000 0.000000
												CHANNELS 3 Xrotation Yrotation Zrotation
												JOINT RightHandIndex3
												{
													OFFSET -10.075203 0.000000 0.000000
													CHANNELS 3 Xrotation Yrotation Zrotation
													End Site
													{
														OFFSET 0.000000 0.000000 0.000000
													}
												}
											}
										}
										JOINT RightHandMiddle1
										{
											OFFSET -25.764404 0.000000 0.000000
											CHANNELS 3 Xrotation Yrotation Zrotation
											JOINT RightHandMiddle2
											{
												OFFSET -9.393974 0.000000 0.000000
												CHANNELS 3 Xrotation Yrotation Zrotation
												JOINT RightHandMiddle3
												{
													OFFSET -10.771950 0.000000 0.000000
													CHANNELS 3 Xrotation Yrotation Zrotation
													End Site
													{
														OFFSET 0.000000 0.000000 0.000000
													}
												}
											}
										}
										JOINT RightHandRing1
										{
											OFFSET -24.660927 0.144547 -6.225808
											CHANNELS 3 Xrotation Yrotation Zrotation
											JOINT RightHandRing2
											{
												OFFSET -9.393799 0.000000 0.000000
												CHANNELS 3 Xrotation Yrotation Zrotation
												JOINT RightHandRing3
												{
													OFFSET -9.928497 0.000000 0.000000
													CHANNELS 3 Xrotation Yrotation Zrotation
													End Site
													{
														OFFSET 0.000000 0.000000 0.000000
													}
												}
											}
										}
										JOINT RightHandPinky1
										{
											OFFSET -23.655350 0.125290 -12.815412
											CHANNELS 3 Xrotation Yrotation Zrotation
											JOINT RightHandPinky2
											{
												OFFSET -8.425102 0.000000 0.000000
												CHANNELS 3 Xrotation Yrotation Zrotation
												JOINT RightHandPinky3
												{
													OFFSET -8.147003 0.000000 0.000000
													CHANNELS 3 Xrotation Yrotation Zrotation
													End Site
													{
														OFFSET 0.000000 0.000000 0.000000
													}
												}
											}
										}
									}
								}
							}
						}
					}
				}
			}
		}
	}
	JOINT LeftUpLeg
	{
		OFFSET 11.394100 -6.187798 -0.413800
		CHANNELS 3 Xrotation Yrotation Zrotation
		JOINT LeftLeg
		{
			OFFSET 0.430247 -32.302673 3.732800
			CHANNELS 3 Xrotation Yrotation Zrotation
			JOINT LeftFoot
			{
				OFFSET -0.430247 -48.264931 -6.423300
				CHANNELS 3 Xrotation Yrotation Zrotation
				JOINT LeftToeBase
				{
					OFFSET 4.230900 -16.068199 23.438400
					CHANNELS 3 Xrotation Yrotation Zrotation
					JOINT LeftToe_End
					{
						OFFSET 4.510700 0.695400 19.974600
						CHANNELS 3 Xrotation Yrotation Zrotation
						End Site
						{
							OFFSET 0.000000 0.000000 0.000000
						}
					}
				}
			}
		}
	}
	JOINT RightUpLeg
	{
		OFFSET -11.333700 -6.187798 -0.413800
		CHANNELS 3 Xrotation Yrotation Zrotation
		JOINT RightLeg
		{
			OFFSET -0.430392 -32.302628 3.733000
			CHANNELS 3 Xrotation Yrotation Zrotation
			JOINT RightFoot
			{
				OFFSET 0.430392 -48.264973 -6.423500
				CHANNELS 3 Xrotation Yrotation Zrotation
				JOINT RightToeBase
				{
					OFFSET -4.230900 -16.068199 23.438400
					CHANNELS 3 Xrotation Yrotation Zrotation
					JOINT RightToe_End
					{
						OFFSET -4.510700 0.695400 19.974600
						CHANNELS 3 Xrotation Yrotation Zrotation
						End Site
						{
							OFFSET 0.000000 0.000000 0.000000
						}
					}
				}
			}
		}
	}
}
MOTION
Frames: 6
Frame Time: 0.016667
-2.295358 96.641571 -2.789081 -6.264118 -26.261439 1.723959 5.557864 -2.785224 -2.501765 1.469060 -2.839397 -0.460261 0.000000 0.000000 0.000000 1.463317 -2.694935 0.220314 2.455876 4.751711 1.127230 -0.495923 -18.984326 -3.620252 -0.000000 -0.000001 -0.000000 -0.595444 -16.331998 -20.041824 0.000000 0.000000 0.000000 12.420919 10.550290 -35.769725 -0.000008 -96.391851 0.000008 -130.486338 -9.490895 13.340970 -12.800115 -17.470133 4.121658 1.000138 0.731298 -1.438310 -7.335817 -0.421695 13.147363 0.000000 -0.000001 -0.000001 -3.532546 4.254382 -63.954592 3.402098 5.315506 -65.218936 0.000000 0.000000 0.000001 2.434384 7.296039 -69.364075 3.297862 5.266368 -64.088642 0.000005 0.000000 0.000000 4.717045 8.075522 -77.582281 2.056304 4.456879 -49.517656 -0.000001 0.000000 0.000000 6.410338 8.363739 -80.414570 1.722713 4.149881 -45.074406 -0.000001 0.000000 0.000000 0.930388 18.037669 10.376099 0.000000 0.000000 0.000000 6.836824 30.018917 41.382859 0.000560 94.273529 -0.000560 -34.121057 -22.154928 26.634003 20.470541 7.475568 18.843582 4.151722 -12.160927 -33.847996 -6.346096 -41.944055 -36.535471 0.000001 0.000002 -0.000001 -0.887085 1.427988 12.684532 1.917402 -3.767468 53.934326 0.000001 -0.000001 0.000001 0.770887 -5.199591 54.618823 5.563867 -4.568243 101.238580 -0.000000 0.000002 0.000002 6.934467 -8.544293 63.908755 2.909289 -4.317407 67.934701 0.000000 -0.000002 -0.000000 8.373405 -8.171762 73.989937 2.173683 -3.940959 57.745390 0.000002 0.000001 -0.000000 -20.128943 9.032337 10.923320 31.709850 10.130762 1.696272 2.855284 18.740227 -10.065319 -0.499365 0.011569 -1.326994 -0.000000 0.000000 -0.000000 -16.123329 -32.267241 -15.448833 36.226668 6.926576 -6.481363 -19.187941 -19.567073 3.444242 -2.342331 0.000005 0.000004 -0.000000 0.000000 0.000000 
-2.635491 96.736755 -2.665780 -6.318567 -26.955598 1.587896 5.588416 -2.670531 -2.448597 1.469655 -2.769730 -0.466834 0.000000 0.000000 0.000000 1.463646 -2.627377 0.198467 2.455875 4.751714 1.127230 -0.517743 -18.807918 -3.545887 -0.000000 -0.000002 0.000001 -0.595444 -16.332002 -20.041826 0.000000 0.000000 0.000000 11.979354 10.162493 -35.915409 0.000070 -96.251121 0.000161 -130.145143 -9.203697 13.619368 -12.800115 -17.470133 4.121657 1.000137 0.731300 -1.438311 -7.335815 -0.421696 13.147358 0.000001 -0.000002 0.000001 -3.532545 4.254384 -63.954599 3.402098 5.315506 -65.218936 -0.000002 0.000000 0.000001 2.434384 7.296042 -69.364075 3.297861 5.266369 -64.088642 0.000001 0.000001 -0.000001 4.717044 8.075520 -77.582281 2.056308 4.456876 -49.517652 0.000000 0.000001 -0.000001 6.410339 8.363740 -80.414570 1.722710 4.149882 -45.074403 0.000000 -0.000001 0.000001 0.928820 18.095130 10.321578 0.000000 0.000000 0.000000 7.039707 29.557394 41.115031 0.000331 94.754402 -0.000353 -34.318729 -22.151497 26.224416 20.470541 7.475569 18.843585 4.151723 -12.160927 -33.848000 -6.346096 -41.944048 -36.535467 -0.000001 -0.000002 -0.000000 -0.887087 1.427988 12.684533 1.917401 -3.767468 53.934322 0.000000 -0.000000 0.000001 0.770889 -5.199589 54.618823 5.563871 -4.568246 101.238580 0.000000 -0.000001 0.000003 6.934470 -8.544292 63.908755 2.909290 -4.317409 67.934701 -0.000001 -0.000001 -0.000001 8.373406 -8.171762 73.989937 2.173680 -3.940960 57.745384 -0.000001 -0.000000 -0.000000 -20.213118 8.931609 11.166089 32.301133 9.952340 1.709617 3.043121 19.513007 -9.830530 -0.604084 0.016911 -1.603619 0.000000 -0.000000 0.000000 -15.482413 -32.080046 -14.942212 35.780294 6.948941 -6.456697 -19.215790 -19.232462 3.358373 -2.342331 0.000002 0.000004 0.000000 0.000000 0.000000 
-2.961141 96.838516 -2.545883 -6.374570 -27.649994 1.456193 5.616488 -2.544545 -2.401654 1.470253 -2.697863 -0.473616 0.000000 0.000000 0.000000 1.463943 -2.557642 0.176190 2.455874 4.751728 1.127228 -0.552614 -18.607536 -3.469239 -0.000000 -0.000000 0.000000 -0.595444 -16.331998 -20.041824 0.000000 0.000000 0.000000 11.555117 9.778311 -36.062282 0.000264 -96.110283 0.000296 -129.807458 -8.910039 13.881085 -12.800115 -17.470132 4.121660 1.000139 0.731300 -1.438317 -7.335816 -0.421702 13.147359 -0.000000 0.000000 0.000002 -3.532545 4.254383 -63.954592 3.402098 5.315506 -65.218936 0.000001 0.000000 0.000001 2.434382 7.296041 -69.364075 3.297859 5.266373 -64.088642 0.000002 0.000000 0.000000 4.717043 8.075519 -77.582281 2.056302 4.456879 -49.517652 -0.000001 0.000000 0.000001 6.410339 8.363743 -80.414563 1.722710 4.149881 -45.074406 0.000001 0.000000 0.000000 0.926476 18.152643 10.275615 0.000000 0.000000 0.000000 7.261008 29.087529 40.849155 -0.000032 95.247528 0.000029 -34.508376 -22.138988 25.801856 20.470543 7.475567 18.843587 4.151723 -12.160926 -33.847996 -6.346100 -41.944048 -36.535471 -0.000003 -0.000000 0.000001 -0.887086 1.427985 12.684530 1.917400 -3.767470 53.934329 0.000001 -0.000000 0.000000 0.770889 -5.199592 54.618823 5.563873 -4.568246 101.238580 -0.000000 -0.000000 -0.000002 6.934471 -8.544294 63.908755 2.909291 -4.317407 67.934701 -0.000000 -0.000000 0.000000 8.373406 -8.171764 73.989930 2.173684 -3.940960 57.745384 0.000002 -0.000001 -0.000001 -20.184087 8.852667 11.389898 32.734850 9.870608 1.721596 3.246868 20.190550 -9.675479 -0.698244 0.022575 -1.851786 0.000000 0.000000 -0.000000 -14.834782 -31.849947 -14.441441 35.307167 6.913259 -6.426259 -19.214319 -18.875084 3.302301 -2.342331 0.000002 0.000004 -0.000000 0.000000 0.000000 
-3.273654 96.942986 -2.429399 -6.432215 -28.344518 1.325665 5.642801 -2.409941 -2.357196 1.470858 -2.625019 -0.480490 0.000000 0.000000 0.000000 1.464210 -2.487023 0.153858 2.455875 4.751707 1.127230 -0.597445 -18.386473 -3.389410 -0.000000 0.000002 0.000000 -0.595444 -16.332002 -20.041824 0.000000 0.000000 0.000000 11.157868 9.410624 -36.208960 0.000426 -95.973857 0.000397 -129.478475 -8.615276 14.116785 -12.800118 -17.470128 4.121663 1.000137 0.731301 -1.438315 -7.335816 -0.421696 13.147367 -0.000000 -0.000001 0.000002 -3.532548 4.254386 -63.954592 3.402099 5.315507 -65.218929 -0.000002 -0.000000 0.000000 2.434380 7.296046 -69.364082 3.297861 5.266369 -64.088642 -0.000001 0.000000 -0.000001 4.717041 8.075526 -77.582281 2.056303 4.456879 -49.517652 -0.000000 -0.000001 0.000001 6.410335 8.363743 -80.414563 1.722707 4.149883 -45.074406 0.000000 0.000000 -0.000001 0.923533 18.206699 10.240311 0.000000 0.000000 0.000000 7.499873 28.626708 40.584639 0.000238 95.740701 -0.000263 -34.687280 -22.112937 25.372696 20.470543 7.475569 18.843590 4.151722 -12.160926 -33.848000 -6.346093 -41.944052 -36.535467 0.000003 -0.000000 0.000000 -0.887087 1.427986 12.684534 1.917401 -3.767470 53.934326 0.000001 0.000000 0.000000 0.770888 -5.199593 54.618834 5.563870 -4.568245 101.238580 0.000001 -0.000000 -0.000000 6.934470 -8.544293 63.908755 2.909290 -4.317407 67.934701 -0.000001 0.000000 -0.000000 8.373406 -8.171763 73.989937 2.173682 -3.940959 57.745384 0.000002 0.000001 0.000000 -20.177811 8.804307 11.537682 33.065820 9.875683 1.729172 3.432361 20.549924 -9.527906 -0.796232 0.028401 -2.075659 0.000000 0.000001 -0.000000 -14.188337 -31.582228 -13.949119 34.819683 6.827242 -6.390953 -19.191047 -18.497122 3.271360 -2.342331 0.000003 0.000004 -0.000000 0.000002 0.000000 
-3.517902 97.040703 -2.315377 -6.491447 -29.035459 1.190676 5.661456 -2.235185 -2.310200 1.471476 -2.547691 -0.487785 0.000000 0.000000 0.000000 1.464451 -2.412450 0.130488 2.455878 4.751704 1.127233 -0.635373 -18.136430 -3.296949 -0.000000 -0.000004 0.000000 -0.595444 -16.332002 -20.041824 0.000000 0.000000 0.000000 10.825686 9.127652 -36.348839 -0.000795 -95.854479 -0.000771 -129.181144 -8.345421 14.279347 -12.800113 -17.470130 4.121659 1.000138 0.731300 -1.438316 -7.335817 -0.421697 13.147359 -0.000000 -0.000001 0.000000 -3.532546 4.254388 -63.954592 3.402096 5.315508 -65.218929 -0.000001 -0.000000 -0.000001 2.434381 7.296043 -69.364075 3.297861 5.266371 -64.088642 0.000005 -0.000001 0.000001 4.717041 8.075524 -77.582288 2.056309 4.456878 -49.517652 -0.000003 -0.000000 0.000001 6.410338 8.363742 -80.414563 1.722711 4.149882 -45.074406 -0.000001 -0.000000 0.000000 0.917856 18.249077 10.245465 0.000000 0.000000 0.000000 7.737187 28.253504 40.318118 0.000084 96.155984 -0.000115 -34.827732 -22.055767 24.996496 20.470543 7.475570 18.843589 4.151722 -12.160925 -33.847996 -6.346102 -41.944052 -36.535467 0.000002 0.000001 -0.000002 -0.887086 1.427989 12.684530 1.917402 -3.767468 53.934326 0.000001 0.000000 -0.000001 0.770889 -5.199590 54.618830 5.563868 -4.568245 101.238573 -0.000000 0.000001 0.000001 6.934470 -8.544292 63.908762 2.909289 -4.317407 67.934701 0.000001 0.000001 0.000000 8.373406 -8.171760 73.989937 2.173684 -3.940959 57.745384 0.000002 0.000001 -0.000000 -20.391994 8.789796 11.539276 33.439421 9.915156 1.728187 3.540233 20.449728 -9.263652 -0.915193 0.034620 -2.291183 0.000000 -0.000001 0.000000 -13.611795 -31.254314 -13.513697 34.365943 6.689264 -6.352274 -19.124629 -18.104883 3.289397 -2.342331 0.000002 0.000004 -0.000000 -0.000002 -0.000000 
-3.750090 97.140366 -2.199793 -6.552491 -29.738589 1.052236 5.678417 -2.045900 -2.262867 1.472114 -2.469052 -0.495208 0.000000 0.000000 0.000000 1.464665 -2.336617 0.106899 2.455876 4.751713 1.127229 -0.688126 -17.872209 -3.204946 -0.000000 0.000000 -0.000000 -0.595444 -16.332003 -20.041821 0.000000 0.000000 0.000000 10.521533 8.864607 -36.480252 -0.000017 -95.744649 -0.000021 -128.900833 -8.085322 14.411817 -12.800114 -17.470128 4.121660 1.000140 0.731304 -1.438308 -7.335815 -0.421698 13.147363 -0.000000 0.000000 0.000002 -3.532546 4.254385 -63.954599 3.402097 5.315508 -65.218929 0.000001 -0.000000 -0.000000 2.434381 7.296041 -69.364082 3.297861 5.266365 -64.088642 0.000001 0.000001 -0.000000 4.717044 8.075526 -77.582281 2.056304 4.456879 -49.517652 -0.000002 -0.000001 0.000001 6.410335 8.363742 -80.414570 1.722711 4.149883 -45.074406 -0.000000 0.000000 -0.000000 0.911199 18.289870 10.261726 0.000000 0.000000 0.000000 7.981241 27.895001 40.053008 0.000557 96.565331 -0.000513 -34.953391 -21.990178 24.623617 20.470541 7.475570 18.843587 4.151723 -12.160927 -33.848000 -6.346095 -41.944052 -36.535474 -0.000001 0.000001 0.000002 -0.887085 1.427988 12.684535 1.917402 -3.767467 53.934322 0.000001 -0.000000 0.000002 0.770890 -5.199590 54.618827 5.563868 -4.568246 101.238580 -0.000001 -0.000000 0.000001 6.934471 -8.544293 63.908769 2.909287 -4.317409 67.934701 0.000002 -0.000001 0.000000 8.373406 -8.171762 73.989937 2.173683 -3.940959 57.745384 0.000002 -0.000000 -0.000000 -20.729761 8.803204 11.441698 33.773240 9.967353 1.719804 3.611069 19.958328 -8.946460 -1.051913 0.041138 -2.496831 0.000000 0.000000 -0.000000 -13.039722 -30.893984 -13.089078 33.901767 6.522553 -6.309868 -19.040254 -17.696583 3.326548 -2.342331 0.000003 0.000004 -0.000000 0.000000 0.000000 
